<?xml version="1.0" standalone="no"?>
<!DOCTYPE svg PUBLIC "-//W3C//DTD SVG 20010904//EN"
 "http://www.w3.org/TR/2001/REC-SVG-20010904/DTD/svg10.dtd">
<svg version="1.0" xmlns="http://www.w3.org/2000/svg"
 width="436.000000pt" height="436.000000pt" viewBox="0 0 436.000000 436.000000"
 preserveAspectRatio="xMidYMid meet">
<metadata>
Created by potrace 1.14, written by Peter Selinger 2001-2017
</metadata>
<g transform="translate(0.000000,436.000000) scale(0.100000,-0.100000)"
fill="#000000" stroke="none">
<path d="M2100 3598 c-52 -16 -115 -36 -140 -43 -25 -7 -83 -25 -130 -40 -47
-15 -95 -29 -108 -32 -12 -3 -64 -19 -115 -37 l-92 -31 -22 -65 c-12 -36 -22
-65 -22 -65 -1 0 -199 -579 -228 -667 l-26 -77 53 -128 c29 -70 119 -288 200
-483 81 -195 183 -443 227 -550 l81 -195 0 -303 c0 -167 1 -305 3 -307 2 -2
64 -64 137 -138 l133 -135 155 2 154 1 130 130 131 131 2 299 2 300 153 365
c84 201 173 415 199 475 25 61 56 135 69 165 13 30 52 125 88 211 l65 156 -70
204 c-98 284 -180 522 -183 534 -2 6 -8 23 -14 38 -7 16 -12 33 -12 38 0 6 -7
23 -15 39 -13 25 -29 33 -118 60 -56 17 -113 35 -127 40 -14 5 -79 25 -145 46
-66 20 -160 50 -208 65 -49 16 -94 29 -100 28 -7 0 -55 -14 -107 -31z m313
-89 c106 -34 216 -68 245 -76 28 -9 52 -19 52 -22 0 -3 -236 -6 -525 -6 -289
0 -525 0 -525 1 0 2 131 43 300 94 58 17 130 40 160 50 30 10 65 19 78 19 13
1 110 -26 215 -60z m41 -158 l299 -1 -264 -130 c-145 -72 -271 -134 -279 -139
-11 -6 -98 33 -292 130 -153 77 -278 140 -278 142 0 1 116 1 258 0 141 -1 392
-2 556 -2z m-814 -56 c6 -1 75 -37 123 -64 18 -10 100 -53 182 -96 165 -86
180 -95 168 -105 -15 -14 -464 -242 -468 -238 -2 2 -7 24 -10 48 -3 25 -7 56
-10 70 -2 14 -7 50 -10 80 -4 30 -8 66 -10 80 -2 14 -9 68 -15 120 -6 52 -13
105 -15 117 -4 23 -3 23 28 6 18 -10 34 -18 37 -18z m1195 3 c-5 -24 -33 -214
-41 -283 -3 -22 -7 -49 -9 -61 -6 -28 -18 -125 -19 -146 0 -10 -2 -18 -4 -18
-4 0 -485 241 -490 245 -4 4 549 284 561 284 4 1 5 -9 2 -21z m-1291 -189 c7
-62 14 -117 22 -169 2 -14 7 -55 10 -91 3 -37 7 -74 7 -84 2 -12 -36 -37 -138
-91 -77 -40 -143 -74 -147 -74 -4 0 34 118 83 263 50 144 97 282 105 307 8 25
20 59 26 75 l13 30 6 -51 c4 -28 9 -80 13 -115z m1456 -182 c56 -169 100 -310
98 -312 -2 -3 -66 28 -141 68 -98 51 -136 76 -132 87 2 8 7 40 10 70 17 137
26 212 30 231 4 21 18 148 18 167 1 31 20 -22 117 -311z m-532 -54 c147 -75
274 -141 283 -147 16 -11 17 0 -46 -491 -3 -27 -8 -68 -11 -90 -3 -22 -7 -56
-10 -75 -2 -19 -7 -53 -9 -76 -2 -22 -6 -54 -9 -70 -3 -16 -8 -49 -11 -74 -3
-25 -8 -63 -11 -85 -2 -22 -7 -58 -9 -80 -3 -22 -7 -56 -9 -75 -3 -19 -8 -60
-12 -90 -4 -30 -14 -113 -23 -185 l-17 -130 -97 0 c-87 0 -100 3 -99 25 6 93
14 181 18 200 2 14 7 59 9 100 3 41 9 118 14 170 6 52 13 124 16 160 4 36 8
83 10 105 2 22 7 69 10 105 3 36 8 81 10 100 2 19 7 73 10 118 7 79 6 84 -11
78 -91 -27 -235 -59 -262 -58 -19 1 -83 15 -143 32 -127 35 -132 36 -125 13 3
-10 8 -49 11 -88 6 -73 9 -108 20 -212 4 -34 8 -79 10 -100 6 -73 16 -178 20
-213 2 -19 6 -62 9 -95 13 -153 18 -202 21 -223 2 -12 7 -62 10 -110 4 -48 9
-90 12 -94 2 -5 -15 -8 -39 -9 -77 -2 -170 0 -174 3 -3 4 -9 48 -19 138 -3 25
-7 59 -10 75 -2 17 -7 53 -10 80 -3 28 -8 66 -10 85 -3 19 -7 55 -10 80 -3 25
-7 54 -9 65 -2 11 -7 49 -11 85 -3 36 -8 76 -10 90 -6 38 -44 347 -51 410 -3
30 -7 66 -9 79 -5 26 -11 78 -20 151 -3 25 -9 69 -14 98 -5 35 -4 57 3 66 6 7
76 48 156 89 80 42 199 105 265 141 66 35 121 65 123 65 1 1 122 -60 270 -136z
m644 -338 c16 -9 11 -26 -48 -170 -36 -88 -71 -173 -78 -190 -7 -16 -26 -61
-41 -100 -15 -38 -33 -83 -40 -100 -7 -16 -27 -66 -45 -110 -17 -44 -37 -93
-45 -110 -7 -16 -43 -104 -80 -195 -37 -91 -74 -176 -81 -190 l-15 -25 6 30
c11 66 27 188 30 230 1 17 5 44 8 60 4 17 9 59 12 95 4 35 8 67 10 70 1 3 6
34 9 70 4 36 8 76 11 90 2 13 7 46 10 74 3 28 10 83 16 121 5 39 12 88 14 110
3 22 8 58 12 80 4 22 6 43 5 46 -1 4 3 33 8 65 5 33 12 84 15 114 11 100 1 99
153 18 76 -40 145 -78 154 -83z m-1521 133 c0 -7 2 -22 5 -33 2 -11 8 -58 14
-105 6 -47 13 -96 15 -110 2 -14 6 -45 10 -70 3 -25 8 -63 11 -85 3 -22 7 -51
9 -65 2 -14 6 -43 9 -65 6 -40 14 -101 20 -152 2 -15 9 -66 16 -113 15 -108
18 -133 25 -195 3 -27 8 -59 10 -70 2 -11 7 -42 10 -70 4 -27 9 -63 11 -80 11
-83 14 -108 10 -104 -2 2 -24 54 -49 114 -93 229 -299 731 -307 750 -23 49
-120 287 -122 301 -2 11 40 38 142 90 80 40 148 74 153 74 4 0 7 -6 8 -12z
m835 -406 c-3 -10 -8 -53 -12 -97 -3 -44 -7 -91 -9 -105 -1 -14 -5 -56 -9 -95
-3 -38 -9 -86 -11 -105 -3 -19 -8 -60 -10 -90 -5 -58 -13 -139 -20 -205 -3
-22 -7 -62 -10 -90 -3 -27 -8 -70 -10 -95 -3 -25 -7 -69 -10 -99 -3 -29 -8
-57 -11 -62 -3 -5 -52 -8 -109 -8 l-105 0 -1 32 c0 18 -2 41 -4 52 -1 11 -5
52 -9 90 -8 88 -15 167 -21 225 -9 91 -15 147 -20 210 -3 36 -7 81 -10 100 -2
19 -7 64 -10 100 -6 70 -13 149 -20 217 l-4 42 32 -6 c18 -3 63 -13 101 -23
68 -16 72 -16 170 7 55 13 102 26 105 28 9 9 22 -8 17 -23z m82 -1115 c1 -4
-122 -101 -275 -215 -365 -273 -391 -292 -398 -292 -3 0 -5 114 -4 254 0 225
2 255 17 258 36 7 657 2 660 -5z m70 -282 c0 -253 0 -255 -22 -256 -11 -1
-169 -2 -349 -3 l-328 -2 26 20 c13 12 37 30 52 41 16 11 161 118 323 237 162
120 295 218 296 218 1 0 2 -115 2 -255z m-28 -304 c0 -2 -50 -54 -112 -114
l-111 -110 -119 0 c-111 0 -121 2 -145 24 -41 37 -203 199 -203 203 0 1 155 3
345 3 190 -1 345 -3 345 -6z"/>
</g>
</svg>
